<?xml version="1.0" encoding="UTF-8" standalone="no"?>
<!DOCTYPE svg PUBLIC "-//W3C//DTD SVG 1.1//EN" "http://www.w3.org/Graphics/SVG/1.1/DTD/svg11.dtd">
<svg width="100%" height="100%" viewBox="0 0 1088 1088" version="1.1" xmlns="http://www.w3.org/2000/svg" xmlns:xlink="http://www.w3.org/1999/xlink" xml:space="preserve" xmlns:serif="http://www.serif.com/" style="fill-rule:evenodd;clip-rule:evenodd;stroke-linejoin:round;stroke-miterlimit:2;">
    <g transform="matrix(1,0,0,1,5148.16,4.54747e-13)">
        <g transform="matrix(5.55556,0,0,5.55556,-4165.9,336.806)">
            <path d="M0,74.529C-6.042,74.529 -10.959,69.613 -10.959,63.57C-10.959,57.528 -6.042,52.611 0,52.611C6.042,52.611 10.958,57.528 10.958,63.57C10.958,69.613 6.042,74.529 0,74.529M-52.612,127.141C-58.654,127.141 -63.571,122.224 -63.571,116.182C-63.571,110.14 -58.654,105.223 -52.612,105.223C-46.569,105.223 -41.653,110.14 -41.653,116.182C-41.653,122.224 -46.569,127.141 -52.612,127.141M-71.149,112.176L-139.299,112.176C-139.906,109.364 -141.145,106.792 -142.849,104.593L-116.812,78.558C-113.603,81.045 -109.589,82.542 -105.224,82.542C-95.579,82.542 -87.609,75.302 -86.422,65.974L-55.016,65.974L-55.016,97.38C-63.014,98.398 -69.47,104.401 -71.149,112.176M-157.836,127.141C-163.878,127.141 -168.795,122.224 -168.795,116.182C-168.795,110.14 -163.878,105.223 -157.836,105.223C-151.793,105.223 -146.877,110.14 -146.877,116.182C-146.877,122.224 -151.793,127.141 -157.836,127.141M-168.795,10.958C-168.795,4.916 -163.878,-0.001 -157.836,-0.001C-151.793,-0.001 -146.877,4.916 -146.877,10.958C-146.877,17.001 -151.793,21.917 -157.836,21.917C-163.878,21.917 -168.795,17.001 -168.795,10.958M-105.224,-52.612C-99.181,-52.612 -94.265,-47.696 -94.265,-41.654C-94.265,-35.611 -99.181,-30.695 -105.224,-30.695C-111.266,-30.695 -116.183,-35.611 -116.183,-41.654C-116.183,-47.696 -111.266,-52.612 -105.224,-52.612M-86.687,-37.647L-18.537,-37.647C-17.925,-34.816 -16.675,-32.226 -14.952,-30.017L-40.976,-3.993C-44.193,-6.503 -48.225,-8.013 -52.612,-8.013C-62.257,-8.013 -70.226,-0.773 -71.414,8.555L-102.82,8.555L-102.82,-22.852C-94.822,-23.87 -88.366,-29.872 -86.687,-37.647M0,-52.612C6.042,-52.612 10.958,-47.696 10.958,-41.654C10.958,-35.611 6.042,-30.695 0,-30.695C-6.042,-30.695 -10.959,-35.611 -10.959,-41.654C-10.959,-47.696 -6.042,-52.612 0,-52.612M-41.653,10.958C-41.653,17.001 -46.569,21.917 -52.612,21.917C-58.654,21.917 -63.571,17.001 -63.571,10.958C-63.571,4.916 -58.654,-0.001 -52.612,-0.001C-46.569,-0.001 -41.653,4.916 -41.653,10.958M-116.183,63.57C-116.183,57.528 -111.266,52.611 -105.224,52.611C-99.181,52.611 -94.265,57.528 -94.265,63.57C-94.265,69.613 -99.181,74.529 -105.224,74.529C-111.266,74.529 -116.183,69.613 -116.183,63.57M-107.628,-22.852L-107.628,8.555L-139.034,8.555C-139.396,5.706 -140.389,3.057 -141.873,0.745L-115.437,-25.691C-113.125,-24.207 -110.476,-23.214 -107.628,-22.852M-146.248,101.194C-148.446,99.491 -151.018,98.252 -153.829,97.645L-153.829,29.495C-146.054,27.816 -140.052,21.36 -139.034,13.362L-107.628,13.362L-107.628,44.768C-116.955,45.956 -124.195,53.925 -124.195,63.57C-124.195,67.935 -122.698,71.949 -120.211,75.159L-146.248,101.194ZM-86.422,61.166C-87.509,52.628 -94.281,45.855 -102.82,44.768L-102.82,13.362L-71.414,13.362C-70.327,21.901 -63.554,28.673 -55.016,29.76L-55.016,61.166L-86.422,61.166ZM-18.802,61.166L-50.208,61.166L-50.208,29.76C-40.88,28.573 -33.64,20.603 -33.64,10.958C-33.64,6.614 -35.123,2.619 -37.588,-0.582L-11.541,-26.63C-9.352,-24.945 -6.797,-23.719 -4.006,-23.117L-4.006,45.033C-11.781,46.712 -17.784,53.169 -18.802,61.166M-50.208,97.38L-50.208,65.974L-18.802,65.974C-18.437,68.843 -17.433,71.512 -15.931,73.835L-42.347,100.251C-44.67,98.749 -47.339,97.745 -50.208,97.38M4.006,45.033L4.006,-23.117C12.548,-24.961 18.971,-32.568 18.971,-41.654C18.971,-52.115 10.46,-60.625 0,-60.625C-9.086,-60.625 -16.692,-54.202 -18.537,-45.66L-86.687,-45.66C-88.532,-54.202 -96.138,-60.625 -105.224,-60.625C-115.685,-60.625 -124.195,-52.115 -124.195,-41.654C-124.195,-37.849 -123.059,-34.309 -121.123,-31.336L-147.518,-4.941C-150.491,-6.877 -154.031,-8.013 -157.836,-8.013C-168.297,-8.013 -176.807,0.497 -176.807,10.958C-176.807,20.044 -170.384,27.65 -161.842,29.495L-161.842,97.645C-170.384,99.49 -176.807,107.096 -176.807,116.182C-176.807,126.643 -168.297,135.154 -157.836,135.154C-148.75,135.154 -141.144,128.731 -139.299,120.188L-71.149,120.188C-69.304,128.731 -61.698,135.154 -52.612,135.154C-42.151,135.154 -33.64,126.643 -33.64,116.182C-33.64,112.399 -34.765,108.879 -36.681,105.916L-10.266,79.501C-7.303,81.417 -3.783,82.542 0,82.542C10.46,82.542 18.971,74.031 18.971,63.57C18.971,54.484 12.548,46.878 4.006,45.033" style="fill:rgb(230,230,230);fill-rule:nonzero;"/>
        </g>
    </g>
</svg>
